<svg width="790" height="126" viewBox="0 0 790 126" fill="none" xmlns="http://www.w3.org/2000/svg">
<g clip-path="url(#clip0_19_31)">
<path d="M34.1258 29.968H0V124.751H15.035V82.7513H34.1258C57.0912 82.7513 70.2578 73.1156 70.2578 56.3633C70.2578 39.6109 57.0912 29.968 34.1258 29.968ZM31.9531 78.0525H15.0061V34.674H31.9531C46.1626 34.674 54.3174 42.6784 54.3174 56.3272C54.3174 69.9759 46.1915 78.0525 31.9821 78.0525H31.9531Z" fill="black"/>
<path d="M149.829 73.6858H100.618V29.968H84.6844V124.744H100.618V78.3918H149.829V124.744H165.639V29.968H149.829V73.6858Z" fill="black"/>
<path d="M183.521 124.744H245.855V120.045H199.005V78.3918H242.22V73.6858H199.005V34.6668H245.855V29.968H183.521V124.744Z" fill="black"/>
<path d="M476.639 73.6931C476.639 34.1471 444.23 0 404.397 0C364.564 0 332.162 33.6491 332.162 75.9306V100.904L265.098 29.9031H261.477V124.751H266.199V53.7505L333.255 124.751H336.877V76.9988C336.877 38.319 365.201 11.3968 399.016 11.3968C432.83 11.3968 460.416 41.2855 461.133 76.9988V124.751H522.961V120.024H476.61L476.639 73.6931Z" fill="black"/>
<path d="M784.691 29.968L754.556 77.7494L725.217 30.0763L725.152 29.968H707.807L741.346 83.5092V124.744H756.707V83.2566L790 29.968H784.691Z" fill="black"/>
<path d="M564.105 28.7194C538.836 28.7194 518.282 50.5386 518.282 77.3597C518.282 104.181 538.836 126.007 564.105 126.007C589.373 126.007 609.927 104.181 609.927 77.3597C609.927 50.5386 589.373 28.7194 564.105 28.7194ZM564.105 121.619C545.934 121.619 535.925 105.899 535.925 77.3597C535.925 48.8208 545.934 33.1077 564.105 33.1077C582.276 33.1077 592.285 48.8208 592.285 77.3597C592.285 105.899 582.276 121.619 564.105 121.619Z" fill="black"/>
<path d="M702.397 52.0615C696.603 36.9043 683.791 28.7194 666.308 28.7194C653.504 28.7194 619.479 37.9797 619.479 77.4824C619.479 116.985 652.686 126.007 665.179 126.007C676.448 126.007 686.558 120.955 692.786 112.431L701.796 124.701H705.692V78.3918H690.483V94.4152C690.483 109.811 679.786 121.424 665.606 121.424C656.618 121.424 636.723 115.606 636.723 77.6123C636.723 39.6181 658.248 33.5408 667.742 33.5408C682.227 33.5408 693.264 40.9679 698.16 53.902L702.397 52.0615Z" fill="black"/>
<path d="M399.016 28.7194C373.747 28.7194 353.194 50.5386 353.194 77.3597C353.194 104.181 373.747 126.007 399.016 126.007C424.284 126.007 444.838 104.181 444.838 77.3597C444.838 50.5386 424.284 28.7194 399.016 28.7194ZM399.016 121.619C380.845 121.619 370.836 105.899 370.836 77.3597C370.836 48.8208 380.845 33.1077 399.016 33.1077C417.187 33.1077 427.196 48.8208 427.196 77.3597C427.196 105.899 417.187 121.619 399.016 121.619Z" fill="black"/>
</g>
<defs>
<clipPath id="clip0_19_31">
<rect width="790" height="126" fill="white"/>
</clipPath>
</defs>
</svg>
